<svg id="Слой_1" data-name="Слой 1" xmlns="http://www.w3.org/2000/svg" viewBox="0 0 30 30"><defs><style>.cls-1{fill:#424242;}</style></defs><title>i-email</title><g id="Слой_1-2" data-name="Слой 1-2"><path class="cls-1" d="M15,0A15,15,0,1,0,30,15,15,15,0,0,0,15,0Zm0,5.27,8.88,5.53H6.12Zm9,14.37h0a1.61,1.61,0,0,1-1.61,1.61H7.62A1.61,1.61,0,0,1,6,19.64H6V11.16a1.27,1.27,0,0,1,0-.28l8.48,5.29,0,0h0l.18.08h0a.76.76,0,0,0,.21,0h0a.76.76,0,0,0,.21,0h0l.18-.08h0l0,0L24,10.88a1.27,1.27,0,0,1,0,.28Z"/></g></svg>