<svg id="Слой_1" data-name="Слой 1" xmlns="http://www.w3.org/2000/svg" viewBox="0 0 20.13 20.13"><defs><style>.cls-1{fill:#42a5f5;}.cls-2{fill:#fff;}</style></defs><title>i-load</title><circle class="cls-1" cx="10.06" cy="10.06" r="10.06"/><path class="cls-2" d="M9.23,7.12l-1,.94A.8.8,0,0,1,7,8a.8.8,0,0,1,0-1,1.07,1.07,0,0,1,.14-.16L9.42,4.66a.81.81,0,0,1,1.28,0L13,6.9A.82.82,0,0,1,13.05,8a.8.8,0,0,1-1.11.1A1.54,1.54,0,0,1,11.75,8l-.88-.89v.2c0,1.44,0,2.88,0,4.32a.79.79,0,0,1-.51.8.8.8,0,0,1-1.09-.79V7.13Z"/><path class="cls-2" d="M10.06,15.78H7.32a1.93,1.93,0,0,1-1.85-1.92A.79.79,0,0,1,6.24,13a.81.81,0,0,1,.83.72c0,.34.13.42.48.42h5c.34,0,.44-.09.48-.44a.8.8,0,0,1,1.59.06,1.94,1.94,0,0,1-1.83,2Z"/></svg>