<svg id="Слой_1" data-name="Слой 1" xmlns="http://www.w3.org/2000/svg" viewBox="0 0 30 30"><defs><style>.cls-1{fill:#424242;}</style></defs><title>i-phone</title><g id="Слой_1-2" data-name="Слой 1-2"><path class="cls-1" d="M15,0A15,15,0,1,0,30,15,15,15,0,0,0,15,0Zm7.92,21.89-1.2,1.2a2.2,2.2,0,0,1-.86.34,14.16,14.16,0,0,1-14.3-14V9.11a2.39,2.39,0,0,1,.35-.83l1.2-1.2A2,2,0,0,1,10,6.64l.25.08a2.37,2.37,0,0,1,1.37,1.45l.6,2.22a2.13,2.13,0,0,1-.5,1.9l-.8.8a8.52,8.52,0,0,0,6,6l.8-.8a2.19,2.19,0,0,1,1.9-.5l2.22.61a2.37,2.37,0,0,1,1.45,1.37l.09.26a2,2,0,0,1-.45,1.87Z"/></g></svg>