<svg id="Слой_1" data-name="Слой 1" xmlns="http://www.w3.org/2000/svg" viewBox="0 0 432.64 192.48"><defs><style>.cls-1{fill:#42a5f5;}.cls-2{fill:#fff;}.cls-3{fill:#ffb300;}</style></defs><title>logo</title><g id="Слой_1-2" data-name="Слой 1-2"><rect class="cls-1" x="0.9" y="133.1" width="431.74" height="59.37"/><path class="cls-2" d="M36.43,146.38l12.46,29.77,12.5-29.82h3.79V180.1H62.34V165.41l.21-15L50,180.15H47.82L35.27,150.37l.26,14.91V180H32.65V146.38Z"/><path class="cls-2" d="M71.58,167.26a15.88,15.88,0,0,1,.77-5.07,12.15,12.15,0,0,1,2.28-4,10.12,10.12,0,0,1,3.52-2.62,11.35,11.35,0,0,1,9.24,0A10.36,10.36,0,0,1,91,158.19a12.15,12.15,0,0,1,2.24,4,15.88,15.88,0,0,1,.77,5.07V168a15.88,15.88,0,0,1-.77,5.07,12,12,0,0,1-2.24,4,9.7,9.7,0,0,1-3.56,2.62,11.58,11.58,0,0,1-9.2,0,10.11,10.11,0,0,1-3.56-2.62,12.11,12.11,0,0,1-2.28-4,15.88,15.88,0,0,1-.77-5.07Zm2.79.73a13.19,13.19,0,0,0,.56,3.95,9.84,9.84,0,0,0,1.59,3.27,7.88,7.88,0,0,0,9.88,2.23A7.82,7.82,0,0,0,89,175.21a10.08,10.08,0,0,0,1.63-3.36,13.19,13.19,0,0,0,.56-3.95v-.73a12.67,12.67,0,0,0-.56-3.91A10,10,0,0,0,89,160a7.59,7.59,0,0,0-2.66-2.28,7.9,7.9,0,0,0-7.18,0A8,8,0,0,0,76.52,160a9.79,9.79,0,0,0-1.59,3.26,12.67,12.67,0,0,0-.56,3.91Z"/><path class="cls-2" d="M98.82,167.56a19.7,19.7,0,0,1,.64-5.29,13.74,13.74,0,0,1,1.93-4,8.63,8.63,0,0,1,3-2.58,8.82,8.82,0,0,1,3.83-1,9.63,9.63,0,0,1,4.59,1.07,9,9,0,0,1,3.14,3V144.53h2.79v35.62H116V176.8a9.32,9.32,0,0,1-3.22,2.83,10.21,10.21,0,0,1-4.64,1,8.2,8.2,0,0,1-4-1,8.83,8.83,0,0,1-3-2.62,12.87,12.87,0,0,1-1.93-4,19.45,19.45,0,0,1-.65-5.15Zm2.79.47a17.25,17.25,0,0,0,.43,4.3,9.53,9.53,0,0,0,1.37,3.31,7,7,0,0,0,2.28,2.19,6.61,6.61,0,0,0,3.26.77,9.72,9.72,0,0,0,2.58-.34,6.56,6.56,0,0,0,2-.95,6,6,0,0,0,1.55-1.42,7.76,7.76,0,0,0,1.12-1.8v-12.2a11.35,11.35,0,0,0-1-1.81,7.58,7.58,0,0,0-1.51-1.59,7,7,0,0,0-2-1.07A8.82,8.82,0,0,0,109,157a6.7,6.7,0,0,0-3.31.78,6.82,6.82,0,0,0-2.28,2.19,9.45,9.45,0,0,0-1.37,3.31,17.18,17.18,0,0,0-.43,4.29Z"/><path class="cls-2" d="M135.81,180.45a11.25,11.25,0,0,1-4.51-.9,10.89,10.89,0,0,1-3.57-2.58,11.08,11.08,0,0,1-2.32-3.87,14.08,14.08,0,0,1-.86-4.94v-.6a15.85,15.85,0,0,1,.86-5.29,13,13,0,0,1,2.36-4,10.49,10.49,0,0,1,3.44-2.58,9.59,9.59,0,0,1,4.08-.9,10.27,10.27,0,0,1,4.3.86,8.53,8.53,0,0,1,3.09,2.4,10.23,10.23,0,0,1,1.93,3.66,15.21,15.21,0,0,1,.65,4.59V168h-18v.52a11.54,11.54,0,0,0,.64,3.86,9.38,9.38,0,0,0,1.77,3.18,8.52,8.52,0,0,0,2.7,2.11,8.12,8.12,0,0,0,3.53.81,9.19,9.19,0,0,0,3.9-.81,8.63,8.63,0,0,0,3.1-2.62l1.76,1.33a14.12,14.12,0,0,1-1.46,1.72,11.7,11.7,0,0,1-1.93,1.42,10.88,10.88,0,0,1-2.45.94A13.52,13.52,0,0,1,135.81,180.45Zm-.52-23.68a7.35,7.35,0,0,0-2.92.61,7.68,7.68,0,0,0-2.36,1.71,10.72,10.72,0,0,0-1.72,2.71,12.41,12.41,0,0,0-.86,3.44h15v-.3a12.57,12.57,0,0,0-.52-3.05,7.92,7.92,0,0,0-1.37-2.58,5.67,5.67,0,0,0-5.29-2.36Z"/><path class="cls-2" d="M153.72,180.15h-2.79V144.53h2.79Z"/><path class="cls-2" d="M176.15,173.79a4.8,4.8,0,0,0-.26-1.55,3.75,3.75,0,0,0-1-1.46,7.72,7.72,0,0,0-2.06-1.25,18.17,18.17,0,0,0-3.39-1,29.38,29.38,0,0,1-3.7-1,10.49,10.49,0,0,1-2.79-1.42,5.48,5.48,0,0,1-1.68-1.93,6,6,0,0,1-.6-2.66,5.78,5.78,0,0,1,.65-2.67,6.56,6.56,0,0,1,1.76-2.19,9.21,9.21,0,0,1,2.75-1.46,13,13,0,0,1,7.6,0,8.47,8.47,0,0,1,2.92,1.55,6.58,6.58,0,0,1,1.81,2.4,6.94,6.94,0,0,1,.64,3h-2.66a4.29,4.29,0,0,0-.43-1.93,5,5,0,0,0-1.25-1.64,6.62,6.62,0,0,0-2.06-1.11,7.59,7.59,0,0,0-2.75-.48,9.08,9.08,0,0,0-2.79.43,6.47,6.47,0,0,0-1.85,1,3.64,3.64,0,0,0-1.07,1.42,3.94,3.94,0,0,0-.35,1.55,4.26,4.26,0,0,0,.26,1.54,3.69,3.69,0,0,0,1,1.29,7.87,7.87,0,0,0,2,1.08,30.77,30.77,0,0,0,3.44,1,28.27,28.27,0,0,1,3.91,1.16,9.89,9.89,0,0,1,2.74,1.55,5.92,5.92,0,0,1,1.59,2.06,6.42,6.42,0,0,1,.52,2.67,6.3,6.3,0,0,1-.64,2.83,6.52,6.52,0,0,1-1.85,2.19,9.77,9.77,0,0,1-2.92,1.42,13.41,13.41,0,0,1-3.83.52,14.18,14.18,0,0,1-4.29-.61,9.86,9.86,0,0,1-3-1.67,6.63,6.63,0,0,1-1.89-2.41,6.56,6.56,0,0,1-.65-2.79h2.79a4.81,4.81,0,0,0,.73,2.45,5.79,5.79,0,0,0,1.68,1.59,7.87,7.87,0,0,0,2.23.86,11.47,11.47,0,0,0,2.41.26,9.14,9.14,0,0,0,2.75-.39,7.53,7.53,0,0,0,2.06-1,5,5,0,0,0,1.25-1.46A3.78,3.78,0,0,0,176.15,173.79Z"/><path class="cls-2" d="M195.31,167.26a15.56,15.56,0,0,1,.82-5.07,11.53,11.53,0,0,1,2.27-4,9.83,9.83,0,0,1,3.53-2.62,10.49,10.49,0,0,1,4.59-.9,10.76,10.76,0,0,1,4.64,1,10,10,0,0,1,3.53,2.62,11.15,11.15,0,0,1,2.23,4,14.84,14.84,0,0,1,.82,5.07v.73a14.81,14.81,0,0,1-.82,5.07,11.28,11.28,0,0,1-2.23,4,10,10,0,0,1-3.53,2.62,11.74,11.74,0,0,1-9.23,0,10,10,0,0,1-3.53-2.62,11.35,11.35,0,0,1-2.27-4,15.84,15.84,0,0,1-.82-5.07Zm2.79.73a15.13,15.13,0,0,0,.56,3.95,10.24,10.24,0,0,0,1.63,3.27,8,8,0,0,0,9.89,2.23,8.27,8.27,0,0,0,2.62-2.23,11.13,11.13,0,0,0,1.63-3.27,15.41,15.41,0,0,0,.39-3.95v-.73a14.78,14.78,0,0,0-.56-3.91,10.92,10.92,0,0,0-1.64-3.27,7.88,7.88,0,0,0-2.66-2.27,7.66,7.66,0,0,0-3.61-.86,7.45,7.45,0,0,0-3.61.86,7.94,7.94,0,0,0-2.62,2.27,10,10,0,0,0-1.63,3.27,14.78,14.78,0,0,0-.56,3.91Z"/><path class="cls-2" d="M225.47,180.15V157.33h-4.3v-2.27h4.3V152a11.76,11.76,0,0,1,.47-3.39,6.78,6.78,0,0,1,1.51-2.49,6.51,6.51,0,0,1,2.32-1.51,8.57,8.57,0,0,1,3.09-.51h1.5a8.79,8.79,0,0,1,1.46.3v2.32h-2.53a4.61,4.61,0,0,0-3.57,1.42,5.82,5.82,0,0,0-1.29,4v3.1h6v2.28h-6v22.81Z"/><path class="cls-2" d="M274.62,146.38v22.9a12,12,0,0,1-.95,5,9.53,9.53,0,0,1-2.53,3.52,10.55,10.55,0,0,1-3.78,2.15,14.62,14.62,0,0,1-4.64.69,14.83,14.83,0,0,1-4.68-.69,10.7,10.7,0,0,1-3.78-2.15,10.07,10.07,0,0,1-2.5-3.52,13,13,0,0,1-.9-5v-22.9h2.84v22.9a9.9,9.9,0,0,0,.68,3.91,7.92,7.92,0,0,0,1.85,2.79,8.18,8.18,0,0,0,2.88,1.67,12,12,0,0,0,7.26,0,7.71,7.71,0,0,0,2.84-1.67,8.16,8.16,0,0,0,1.89-2.79,10.88,10.88,0,0,0,.64-3.91v-22.9Z"/><path class="cls-2" d="M287.85,167.56l-3.18,3.05v9.58h-2.79V144.53h2.79v23l2.62-2.84,9.63-9.45h3.48l-10.66,10.57,11.6,14.52H298Z"/><path class="cls-2" d="M316.81,157.42a14.9,14.9,0,0,0-1.89,0,7.61,7.61,0,0,0-2.54.43,6.84,6.84,0,0,0-2,1.16,6.71,6.71,0,0,0-1.47,1.8,9.87,9.87,0,0,0-.94,2.28v17.19H305V155.06h2.7V159a8.64,8.64,0,0,1,2.75-3.27,7.79,7.79,0,0,1,4.3-1.2h1.8Z"/><path class="cls-2" d="M336.1,180.15a7.25,7.25,0,0,1-.39-1.59v-1.89a9.86,9.86,0,0,1-1.46,1.5,11.58,11.58,0,0,1-1.93,1.25,10.42,10.42,0,0,1-2.36.86,11.14,11.14,0,0,1-2.75.34,10.05,10.05,0,0,1-3.31-.52,8.47,8.47,0,0,1-2.58-1.5,7.11,7.11,0,0,1-1.63-2.28,6.72,6.72,0,0,1-.56-2.83,7.16,7.16,0,0,1,.77-3.31,7.31,7.31,0,0,1,2.32-2.62,11.77,11.77,0,0,1,3.61-1.59,20.75,20.75,0,0,1,4.77-.52h5.16v-2.88a5.45,5.45,0,0,0-1.68-4.29,6.84,6.84,0,0,0-4.81-1.55,8.89,8.89,0,0,0-2.71.39,6.84,6.84,0,0,0-2.1,1.07,5.45,5.45,0,0,0-1.42,1.64,3.85,3.85,0,0,0-.47,2h-2.8a5.87,5.87,0,0,1,.69-2.75,7.74,7.74,0,0,1,2-2.32,10.09,10.09,0,0,1,3-1.67,11.53,11.53,0,0,1,3.95-.65,12.21,12.21,0,0,1,3.65.52,8.28,8.28,0,0,1,2.92,1.54,7.5,7.5,0,0,1,1.85,2.54,8.72,8.72,0,0,1,.69,3.56v14.87a8.69,8.69,0,0,0,0,1.25,5.4,5.4,0,0,0,.34,1V180Zm-8.59-2a9.45,9.45,0,0,0,2.79-.39,8,8,0,0,0,2.32-1.07,8.16,8.16,0,0,0,3.05-3.48v-5.67h-4.85A16.44,16.44,0,0,0,327,168a9.33,9.33,0,0,0-2.83,1.11,5.06,5.06,0,0,0-1.77,1.76,4.78,4.78,0,0,0-.21,4.21,5.09,5.09,0,0,0,1.12,1.59,5,5,0,0,0,1.76,1,6.63,6.63,0,0,0,2.32.52Z"/><path class="cls-2" d="M345.51,147.8a1.76,1.76,0,0,1,1.66-1.86h.27a1.9,1.9,0,0,1,1.38.51,2,2,0,0,1,.51,1.34,1.84,1.84,0,0,1-.51,1.33,1.9,1.9,0,0,1-1.38.51,2,2,0,0,1-1.42-.51A1.88,1.88,0,0,1,345.51,147.8Zm3.26,32.35H346V155.06h2.75Z"/><path class="cls-2" d="M359,155.06v4.29a10.88,10.88,0,0,1,1.46-1.93,8.55,8.55,0,0,1,1.89-1.5,8.65,8.65,0,0,1,2.27-1,9.49,9.49,0,0,1,2.54-.35,10.29,10.29,0,0,1,3.35.52,6.34,6.34,0,0,1,2.54,1.63,7.84,7.84,0,0,1,1.59,2.88,15.21,15.21,0,0,1,.51,4.3v16.32h-2.62V163.91a10,10,0,0,0-.43-3.27,4.86,4.86,0,0,0-1.16-2.06,4.41,4.41,0,0,0-1.89-1.16,8.44,8.44,0,0,0-2.45-.3,6.53,6.53,0,0,0-2.66.47,8.06,8.06,0,0,0-2.15,1.33,8.71,8.71,0,0,0-1.59,1.94,10.58,10.58,0,0,0-1.07,2.19v17.18h-2.75V155.06Z"/><path class="cls-2" d="M392.12,180.45a11.14,11.14,0,0,1-4.29-.9,10.89,10.89,0,0,1-3.57-2.58,11.58,11.58,0,0,1-2.32-3.87,14.08,14.08,0,0,1-.86-4.94v-.6a15.17,15.17,0,0,1,.9-5.29,12.39,12.39,0,0,1,2.32-4,11,11,0,0,1,3.44-2.58,9.53,9.53,0,0,1,4.3-.9,10.19,10.19,0,0,1,4.29.86,9.12,9.12,0,0,1,3.14,2.4,10.82,10.82,0,0,1,1.89,3.66,15.53,15.53,0,0,1,.65,4.59V168H383.66v.52a12.65,12.65,0,0,0,.6,3.86,10.31,10.31,0,0,0,1.76,3.18,8.56,8.56,0,0,0,2.71,2.11,8.1,8.1,0,0,0,3.52.81,9.2,9.2,0,0,0,3.91-.81,9,9,0,0,0,3.14-2.62l1.72,1.33a14.12,14.12,0,0,1-1.46,1.72,11.39,11.39,0,0,1-1.89,1.42,10.28,10.28,0,0,1-2.41.9A12.69,12.69,0,0,1,392.12,180.45Zm-.51-23.68a7.31,7.31,0,0,0-2.92.61,8.39,8.39,0,0,0-2.37,1.71,9.72,9.72,0,0,0-1.67,2.71,10.8,10.8,0,0,0-.9,3.44h15v-.3a12.09,12.09,0,0,0-.51-3.05,7.82,7.82,0,0,0-1.33-2.58,6.9,6.9,0,0,0-2.24-1.85,6.81,6.81,0,0,0-3.09-.51Z"/><path class="cls-1" d="M0,14.48A27.19,27.19,0,0,1,10.44,12a32.18,32.18,0,0,1,7.82.94,27.65,27.65,0,0,1,6.92,2.84,33.34,33.34,0,0,1,6.61,4.64,56.69,56.69,0,0,1,10,12.89L62.94,72.87,93.53,20h1l11,62a53.51,53.51,0,0,0,8.59,22.81,20,20,0,0,0,17.19,8.6h1.37v1.07a42.61,42.61,0,0,1-11.39,1.59,29.47,29.47,0,0,1-20.79-9,45.61,45.61,0,0,1-12.37-25L83,51.34,63.16,85.93a23.73,23.73,0,0,0-4.3,11.68h-1l-26.12-50-5.2,42.23a3.84,3.84,0,0,0,2.11,3.91,3.64,3.64,0,0,0,2,.64h1.67v1h-22v-.82H12a7.7,7.7,0,0,0,4.9-1.67,6.93,6.93,0,0,0,2.7-4.3l7.18-50.74a77.08,77.08,0,0,0-10.87-15A19.61,19.61,0,0,0,1.59,15.43H.21Z"/><path class="cls-1" d="M134.17,21.48h24.19a43,43,0,0,1,29.56,10.1,34.4,34.4,0,0,1,10.87,26.9,34.68,34.68,0,0,1-10.87,27,42.08,42.08,0,0,1-29.56,9.92H120v-.86h1.37a6.52,6.52,0,0,0,4.6-1.85,6.79,6.79,0,0,0,2.15-4.51v-62a31.54,31.54,0,0,0-17.53,5.5,22.1,22.1,0,0,0-4.3,4.55,43.08,43.08,0,0,0-3.22,5.59L102,41.38a23.06,23.06,0,0,1,10.61-15.26A44.07,44.07,0,0,1,134.17,21.48ZM175,82.32a38.37,38.37,0,0,0,6.61-23.76A37.83,37.83,0,0,0,175,34.93a21,21,0,0,0-17.66-8.59H144V90.91H156.9A21.17,21.17,0,0,0,175,82.15Z"/><path class="cls-1" d="M291.42,110a32.5,32.5,0,0,0,17.74-4.3l.73.86a31.1,31.1,0,0,1-22.6,13.71,44.41,44.41,0,0,1-4.89.3h-4.77a47.09,47.09,0,0,1-7.56-1.42c-3.23-.86-6.06-1.72-8.6-2.62s-5.32-2-8.59-3.48-5.89-2.71-8-3.78l-7.52-3.91-7.65-3.87c-2.19-1-4.3-2-6.36-2.75a47.31,47.31,0,0,0-17.74-3.48v-.77H207a6.75,6.75,0,0,0,6.75-6.66V29.13A6.75,6.75,0,0,0,207,22.47h-1.37v-1h32.09v1H236.6a6.62,6.62,0,0,0-6,3.3,6,6,0,0,0-.94,3.35V90.23A6.49,6.49,0,0,0,231,95a7.28,7.28,0,0,0,3.05,1.85Q273.77,110,291.42,110Z"/><path class="cls-3" d="M342.42,0h2.83V1.16a20.69,20.69,0,0,0-18,11.73,40,40,0,0,0-3.56,18V68.74a27.09,27.09,0,0,1-8.6,20.75A34.6,34.6,0,0,1,291.29,97a37.15,37.15,0,0,1-24.62-7.69,24.92,24.92,0,0,1-8.89-20.54V27.67A4.61,4.61,0,0,0,256.15,24a5.69,5.69,0,0,0-4-1.51h-1.67v-1h30.37v1h-1.63a5.34,5.34,0,0,0-4.85,2.53,4.84,4.84,0,0,0-.74,2.53v40.3a25.78,25.78,0,0,0,5.59,17.75,19.4,19.4,0,0,0,15.29,6.53h0a20.65,20.65,0,0,0,15.64-6.23,23,23,0,0,0,6-16.8V30.94a32.51,32.51,0,0,1,7.56-22.6A24.25,24.25,0,0,1,342.42,0Z"/><path class="cls-3" d="M431.74,114.67a29.39,29.39,0,0,1-23.33,1.89,42,42,0,0,1-21.48-17.18,72.36,72.36,0,0,1-8.34-16.16l-3.39-9H350.28l-5.59,13.32a7.29,7.29,0,0,0-.56,2.19,5.32,5.32,0,0,0,.39,1.85,3.63,3.63,0,0,0,1.59,1.8,5,5,0,0,0,2.71.82h.81v1H326.86v-.73h.95a9.32,9.32,0,0,0,4.81-1.46,10.84,10.84,0,0,0,3.95-4.3l23.55-53.91A31.68,31.68,0,0,0,351.52,22a12.6,12.6,0,0,0-7.47-3,20.33,20.33,0,0,0-6.57,1V19A31.81,31.81,0,0,1,352,15.08a21.5,21.5,0,0,1,15.51,6.75A57,57,0,0,1,379.49,41l15.3,37.81c5.75,14.31,11.68,24.1,17.74,29.47a21.57,21.57,0,0,0,7.61,4.56,23.28,23.28,0,0,0,6.61,1.24,20.69,20.69,0,0,0,5.2-.64Zm-79.83-44.9h21.48l-7.34-19.5-1.47-4.08c-.64-1.72-1.07-2.92-1.28-3.65Z"/></g></svg>