<svg id="Слой_1" data-name="Слой 1" xmlns="http://www.w3.org/2000/svg" viewBox="0 0 30 30"><defs><style>.cls-1{fill:#424242;}.cls-2{fill:#fff;}</style></defs><title>soc-tg-b</title><circle class="cls-1" cx="15" cy="15" r="15"/><path class="cls-2" d="M22.44,9.94,19.81,22.17a1.16,1.16,0,0,1-1.83.7l-5.32-3.82a.72.72,0,0,1-.18-1,.52.52,0,0,1,.1-.11l5.48-5.29a.26.26,0,0,0,0-.37l0,0h0a.29.29,0,0,0-.33,0L10.26,17a1.6,1.6,0,0,1-1.38.16l-3.23-1.1a.75.75,0,0,1-.44-.95.74.74,0,0,1,.44-.44L21.14,8.82a1,1,0,0,1,1.26.63A.91.91,0,0,1,22.44,9.94Z"/></svg>