<svg xmlns="http://www.w3.org/2000/svg" viewBox="0 0 30 30"><defs><style>.cls-1{fill:#fff;}</style></defs><title>soc-vb-w</title><g id="Слой_2" data-name="Слой 2"><g id="Слой_1-2" data-name="Слой 1"><g id="Слой_1-2-2" data-name="Слой 1-2"><circle class="cls-1" cx="15" cy="15" r="15"/><path d="M21.69,8.63c-.41-.39-2.24-1.79-6.35-1.79,0,0-4.84-.28-7.2,1.89a7.78,7.78,0,0,0-1.82,5.6c0,2.38-.11,6.84,4.19,8.06h0v1.84s0,.76.46.91.95-.39,1.51-1c.32-.33.74-.82,1.08-1.2a16.38,16.38,0,0,0,5.45-.4,5.36,5.36,0,0,0,4.52-5.1C24.1,12.86,23.26,10,21.69,8.63Zm.5,8.5a4.18,4.18,0,0,1-3.69,4.19,15.25,15.25,0,0,1-4.71.41s-1.86,2.25-2.44,2.8c-.19.19-.4.18-.4-.2V21.25h0C7.38,20.2,7.59,16.4,7.7,14.41A6.58,6.58,0,0,1,9.1,9.64c2.06-1.76,6.17-1.49,6.17-1.49A8.85,8.85,0,0,1,20.8,9.54c1.27,1.11,1.93,3.72,1.39,7.57Zm-4.93-2.9a.23.23,0,0,1-.29.17.24.24,0,0,1-.18-.17A1.08,1.08,0,0,0,15.84,13h-.21a.24.24,0,0,1-.17-.28.24.24,0,0,1,.17-.18A1.56,1.56,0,0,1,17.26,14Zm.72.41a2.67,2.67,0,0,0-2.54-2.8h-.17a.23.23,0,0,1-.17-.29.21.21,0,0,1,.17-.17,3.13,3.13,0,0,1,3.18,3.08v.19a.24.24,0,0,1-.29.17.23.23,0,0,1-.18-.17Zm1.7.49a.25.25,0,0,1-.29.17.26.26,0,0,1-.18-.17,4.2,4.2,0,0,0-3.84-4.53h-.49a.23.23,0,0,1,0-.46,4.7,4.7,0,0,1,4.8,4.59C19.69,14.86,19.68,15,19.68,15.13Zm-.41,3.51h0c-.39.67-1.12,1.4-1.86,1.19h0a14,14,0,0,1-3.67-2,9.44,9.44,0,0,1-1.52-1.51,12.45,12.45,0,0,1-1.1-1.68,10.68,10.68,0,0,1-.93-2c-.25-.74.51-1.47,1.19-1.85h0a.66.66,0,0,1,.87.14l.63.78c.18.26.42.65.54.86a.74.74,0,0,1-.14,1l-.42.34a.62.62,0,0,0-.19.5,4.49,4.49,0,0,0,3,3,.59.59,0,0,0,.5-.19l.35-.42a.73.73,0,0,1,.95-.11,8.69,8.69,0,0,1,1.64,1.19.61.61,0,0,1,.14.83Z"/></g></g></g></svg>