<svg xmlns="http://www.w3.org/2000/svg" viewBox="0 0 30 30"><defs><style>.cls-1{fill:#fff;}</style></defs><title>soc-ig-w</title><g id="Слой_2" data-name="Слой 2"><g id="Слой_1-2" data-name="Слой 1"><g id="Слой_1-2-2" data-name="Слой 1-2"><path class="cls-1" d="M15,0A15,15,0,1,0,30,15,15,15,0,0,0,15,0Z"/><path d="M15,10.3A4.7,4.7,0,1,0,19.7,15,4.69,4.69,0,0,0,15,10.3Zm0,7.76A3.06,3.06,0,1,1,18.06,15,3.06,3.06,0,0,1,15,18.06Zm6-7.95A1.1,1.1,0,1,1,19.9,9,1.1,1.1,0,0,1,21,10.11Zm3.12,1.11a5.43,5.43,0,0,0-1.48-3.84A5.46,5.46,0,0,0,18.78,5.9c-1.51-.09-6.05-.09-7.56,0A5.48,5.48,0,0,0,7.37,7.37a5.53,5.53,0,0,0-1.48,3.85c-.08,1.51-.08,6,0,7.56a5.43,5.43,0,0,0,1.48,3.84,5.44,5.44,0,0,0,3.85,1.48c1.51.09,6,.09,7.56,0a5.44,5.44,0,0,0,3.85-1.48,5.52,5.52,0,0,0,1.48-3.84c.08-1.51.08-6.05,0-7.56Zm-2,9.19a3.1,3.1,0,0,1-1.74,1.74c-1.21.48-4.07.37-5.41.37s-4.2.1-5.4-.37a3.09,3.09,0,0,1-1.75-1.74c-.48-1.21-.36-4.08-.36-5.41s-.11-4.2.36-5.41A3.08,3.08,0,0,1,9.6,7.85c1.2-.48,4.07-.37,5.4-.37s4.2-.1,5.41.37a3.1,3.1,0,0,1,1.74,1.74c.48,1.21.37,4.08.37,5.41s.11,4.2-.37,5.41Z"/></g></g></g></svg>